<?xml version="1.0" encoding="UTF-8" standalone="no"?>
<!-- Created with Inkscape (http://www.inkscape.org/) -->

<svg
   xmlns:dc="http://purl.org/dc/elements/1.1/"
   xmlns:cc="http://creativecommons.org/ns#"
   xmlns:rdf="http://www.w3.org/1999/02/22-rdf-syntax-ns#"
   xmlns:svg="http://www.w3.org/2000/svg"
   xmlns="http://www.w3.org/2000/svg"
   xmlns:sodipodi="http://sodipodi.sourceforge.net/DTD/sodipodi-0.dtd"
   xmlns:inkscape="http://www.inkscape.org/namespaces/inkscape"
   width="256"
   height="256"
   id="svg4099"
   version="1.1"
   inkscape:version="0.48.2 r9819"
   sodipodi:docname="ebauche1.svg"
   inkscape:export-filename="/Users/daniel/Code/StartupGatineau/StartupGatineau-logo/ebauche1.png"
   inkscape:export-xdpi="90"
   inkscape:export-ydpi="90">
  <defs
     id="defs4101">
    <linearGradient
       id="svg_1"
       spreadMethod="repeat">
      <stop
         id="stop4364"
         stop-color="#000000"
         offset="0" />
      <stop
         id="stop4366"
         stop-color="#ffffff"
         offset="1" />
    </linearGradient>
  </defs>
  <sodipodi:namedview
     id="base"
     pagecolor="#ffffff"
     bordercolor="#666666"
     borderopacity="1.0"
     inkscape:pageopacity="0.0"
     inkscape:pageshadow="2"
     inkscape:zoom="2.6289062"
     inkscape:cx="128.38039"
     inkscape:cy="128"
     inkscape:current-layer="layer1"
     showgrid="true"
     inkscape:document-units="px"
     inkscape:grid-bbox="true"
     inkscape:window-width="1162"
     inkscape:window-height="957"
     inkscape:window-x="389"
     inkscape:window-y="28"
     inkscape:window-maximized="0" />
  <metadata
     id="metadata4104">
    <rdf:RDF>
      <cc:Work
         rdf:about="">
        <dc:format>image/svg+xml</dc:format>
        <dc:type
           rdf:resource="http://purl.org/dc/dcmitype/StillImage" />
        <dc:title></dc:title>
      </cc:Work>
    </rdf:RDF>
  </metadata>
  <g
     id="layer1"
     inkscape:label="Layer 1"
     inkscape:groupmode="layer"
     transform="translate(0,192)">
    <text
       xml:space="preserve"
       style="font-size:56px;font-style:italic;font-variant:normal;font-weight:normal;font-stretch:normal;text-align:start;line-height:125%;letter-spacing:0px;word-spacing:0px;writing-mode:lr-tb;text-anchor:start;fill:#000000;fill-opacity:1;stroke:none;font-family:Lucida Handwriting;-inkscape-font-specification:Lucida Handwriting Italic"
       x="28.559788"
       y="-61.765976"
       id="text4107"
       sodipodi:linespacing="125%"
       transform="matrix(0.93969262,-0.34202014,0.34202014,0.93969262,0,0)"><tspan
         sodipodi:role="line"
         id="tspan4109"
         x="28.559788"
         y="-61.765976">startup</tspan></text>
    <text
       xml:space="preserve"
       style="font-size:48px;font-style:normal;font-variant:normal;font-weight:bold;font-stretch:normal;text-align:start;line-height:125%;letter-spacing:0px;word-spacing:0px;writing-mode:lr-tb;text-anchor:start;fill:#000000;fill-opacity:1;stroke:none;font-family:Droid Serif;-inkscape-font-specification:Droid Serif Bold"
       x="15.953143"
       y="28.922056"
       id="text5156"
       sodipodi:linespacing="125%"><tspan
         sodipodi:role="line"
         id="tspan5160"
         x="15.953143"
         y="28.922056">Gatineau</tspan></text>
    <path
       sodipodi:nodetypes="cc"
       style="fill:none;stroke:#808080;stroke-width:12;stroke-linecap:round;stroke-linejoin:miter;stroke-miterlimit:4;stroke-opacity:0.50222222;stroke-dasharray:none;marker-end:none"
       d="M 8.1870693,-21.326192 247.40672,-21.969806"
       id="path5168"
       inkscape:connector-curvature="0" />
    <path
       d="m 149.92951,-13.006355 c -21.24744,0 -38.49334,-17.246212 -38.49334,-38.493344 0,-10.582468 4.2953,-20.151844 11.21614,-27.108828 l 0.0324,0.0324 c 1.39911,-1.931564 3.6589,-3.199188 6.22455,-3.19918 4.24942,0 7.70192,3.447048 7.70192,7.696492 0,2.605768 -1.30307,4.902092 -3.28607,6.29516 l 0.0272,0.0272 c -4.15855,4.188224 -6.76228,9.906696 -6.76228,16.256604 0,12.809908 10.44776,23.20898 23.31762,23.20898 12.86985,0 23.31218,-10.399072 23.31218,-23.20898 0,-5.795252 -2.17963,-11.050764 -5.71942,-15.110552 -2.10564,-1.374236 -3.50877,-3.74156 -3.50877,-6.441808 0,-4.249444 3.4525,-7.701932 7.70193,-7.701924 2.07746,0 3.95387,0.838904 5.3392,2.178048 l 0.10864,-0.10864 c 6.96143,6.962248 11.27588,16.56734 11.27588,27.184872 0,21.247132 -17.24047,38.493344 -38.48791,38.493344 z m -0.006,-38.2272 c -4.26482,0 -7.69649,-3.493972 -7.69649,-7.837712 l 0,-31.052128 c 0,-4.343737 3.43167,-7.837717 7.69649,-7.837717 4.26484,0 7.70194,3.493972 7.70194,7.837717 l 0,31.052128 c 0,4.34374 -3.43711,7.837712 -7.70194,7.837712 z"
       id="path8"
       stroke-miterlimit="4"
       inkscape:connector-curvature="0"
       style="fill:#00ca12;fill-opacity:1;fill-rule:evenodd;stroke:#000000;stroke-width:1.15999997;stroke-linecap:round;stroke-linejoin:round;stroke-miterlimit:4;stroke-opacity:0.63999999;stroke-dasharray:none;stroke-dashoffset:0;marker-start:none;marker-mid:none;marker-end:none" />
    <path
       inkscape:connector-curvature="0"
       id="path5360"
       d="M 8.1870711,44.480643 247.40672,43.837029"
       style="fill:none;stroke:#808080;stroke-width:12;stroke-linecap:round;stroke-linejoin:miter;stroke-miterlimit:4;stroke-opacity:0.50222222;stroke-dasharray:none;marker-end:none"
       sodipodi:nodetypes="cc" />
    <path
       style="fill:none;stroke:#00980d;stroke-width:6;stroke-linecap:butt;stroke-linejoin:miter;stroke-opacity:1;stroke-miterlimit:4;stroke-dasharray:none"
       d="m 136.55869,-99.566122 c 0.19007,-1.127718 1.35261,-1.458338 1.90193,-2.282318 0.31454,-0.47181 0.46024,-1.04069 0.76077,-1.52154 0.33601,-0.53762 0.80516,-0.98394 1.14116,-1.52155 0.30054,-0.48085 0.44624,-1.04973 0.76078,-1.52155 0.45035,-0.67553 1.10383,-1.20574 1.52154,-1.90193 0.35131,-0.58551 0.45541,-1.2912 0.76077,-1.90193 0.33065,-0.66128 0.81052,-1.24065 1.14116,-1.90193 0.61073,-1.22146 0.85834,-2.61009 1.52155,-3.80386 1.38093,-2.48569 0.94748,-0.4979 1.90193,-3.04309 0.41114,-1.09637 0.38039,-1.13171 0.38039,-1.90194 0,-0.25359 0,-0.50718 0,-0.76077 0,-0.12679 -0.0897,-0.29073 0,-0.38039 0.26234,-0.26234 0.71125,0.28136 0.76077,0.38039 0.0567,0.11341 -0.0567,0.26698 0,0.38039 0.20445,0.4089 0.53875,0.74152 0.76077,1.14116 0.41308,0.74353 0.70355,1.55296 1.14116,2.28231 0.32618,0.54364 0.77267,1.00566 1.14116,1.52155 0.26572,0.37201 0.49505,0.76915 0.76077,1.14116 0.36849,0.51589 0.80515,0.98393 1.14116,1.52154 1.88197,3.01116 -0.70231,-0.0335 2.28232,3.80387 1.17777,1.51427 1.08637,0.65119 1.90193,2.28232 0.30537,0.61072 0.422,1.30908 0.76077,1.90193 0.17793,0.31138 0.50719,0.50718 0.76078,0.76077 0.38038,0.38039 0.76077,0.76077 1.14116,1.14116 0.25359,0.25359 0.54559,0.47387 0.76077,0.76077 0.17011,0.22682 0.25359,0.50718 0.38038,0.76077"
       id="path5362"
       inkscape:connector-curvature="0" />
  </g>
</svg>
