<?xml version="1.0" encoding="UTF-8" standalone="no"?>
<!-- Created with Inkscape (http://www.inkscape.org/) -->

<svg
   xmlns:dc="http://purl.org/dc/elements/1.1/"
   xmlns:cc="http://creativecommons.org/ns#"
   xmlns:rdf="http://www.w3.org/1999/02/22-rdf-syntax-ns#"
   xmlns:svg="http://www.w3.org/2000/svg"
   xmlns="http://www.w3.org/2000/svg"
   xmlns:xlink="http://www.w3.org/1999/xlink"
   xmlns:sodipodi="http://sodipodi.sourceforge.net/DTD/sodipodi-0.dtd"
   xmlns:inkscape="http://www.inkscape.org/namespaces/inkscape"
   width="256"
   height="256"
   id="svg4099"
   version="1.1"
   inkscape:version="0.48.2 r9819"
   sodipodi:docname="ebauche2.svg">
  <defs
     id="defs4101">
    <linearGradient
       id="svg_1"
       spreadMethod="repeat">
      <stop
         id="stop4364"
         stop-color="#000000"
         offset="0" />
      <stop
         id="stop4366"
         stop-color="#ffffff"
         offset="1" />
    </linearGradient>
  </defs>
  <sodipodi:namedview
     id="base"
     pagecolor="#ffffff"
     bordercolor="#666666"
     borderopacity="1.0"
     inkscape:pageopacity="0.0"
     inkscape:pageshadow="2"
     inkscape:zoom="2.6289062"
     inkscape:cx="120.73336"
     inkscape:cy="128"
     inkscape:current-layer="layer1"
     showgrid="true"
     inkscape:document-units="px"
     inkscape:grid-bbox="true"
     inkscape:window-width="1162"
     inkscape:window-height="957"
     inkscape:window-x="166"
     inkscape:window-y="53"
     inkscape:window-maximized="0" />
  <metadata
     id="metadata4104">
    <rdf:RDF>
      <cc:Work
         rdf:about="">
        <dc:format>image/svg+xml</dc:format>
        <dc:type
           rdf:resource="http://purl.org/dc/dcmitype/StillImage" />
      </cc:Work>
    </rdf:RDF>
  </metadata>
  <g
     id="layer1"
     inkscape:label="Layer 1"
     inkscape:groupmode="layer"
     transform="translate(0,192)">
    <text
       xml:space="preserve"
       style="font-size:48px;font-style:normal;font-variant:normal;font-weight:bold;font-stretch:normal;text-align:start;line-height:125%;letter-spacing:0px;word-spacing:0px;writing-mode:lr;text-anchor:start;fill:#000000;fill-opacity:1;stroke:none;font-family:Droid Serif;-inkscape-font-specification:Droid Serif Bold"
       x="10.247348"
       y="23.596645"
       id="text5156"
       sodipodi:linespacing="125%"><tspan
         sodipodi:role="line"
         id="tspan5160"
         x="10.247348"
         y="23.596645">Gatineau</tspan></text>
    <path
       d="m 137.23214,-17.974658 c -21.23772,-0.642736 -37.954036,-18.402745 -37.311308,-39.640154 0.320118,-10.577625 4.902928,-20.012689 12.031058,-26.757132 l 0.0314,0.03337 c 1.45691,-1.888359 3.754,-3.087043 6.31848,-3.009425 4.24748,0.128546 7.59412,3.678456 7.46557,7.925956 -0.0788,2.604575 -1.45076,4.86043 -3.47499,6.192874 l 0.0263,0.02802 c -4.28335,4.060512 -7.05886,9.697601 -7.25096,16.044606 -0.3875,12.804046 9.74091,23.514402 22.60488,23.903719 12.86396,0.389313 23.61608,-9.689117 24.00359,-22.493163 0.17531,-5.792601 -1.84435,-11.111642 -5.25971,-15.27665 -2.0631,-1.437305 -3.39398,-3.845991 -3.3123,-6.545001 0.12855,-4.247499 3.68391,-7.59397 7.93139,-7.465416 2.07651,0.06284 3.92668,0.958126 5.27087,2.338563 l 0.11188,-0.105303 c 6.74763,7.169646 10.76956,16.900855 10.44837,27.513529 -0.64272,21.237407 -18.39701,37.954202 -39.63472,37.311463 z m 1.15038,-38.209885 c -4.26287,-0.129012 -7.58728,-3.725193 -7.45587,-8.066947 l 0.93933,-31.037918 c 0.13139,-4.341748 3.66719,-7.730322 7.93005,-7.601312 4.26289,0.12901 7.59272,3.725362 7.46133,8.067117 l -0.93933,31.037917 c -0.13141,4.341755 -3.67263,7.730152 -7.93551,7.601143 z"
       id="path8"
       stroke-miterlimit="4"
       inkscape:connector-curvature="0"
       style="fill:#00ca12;fill-opacity:1;fill-rule:evenodd;stroke:#000000;stroke-width:1.15999997;stroke-linecap:round;stroke-linejoin:round;stroke-miterlimit:4;stroke-opacity:0.63999999;stroke-dasharray:none;stroke-dashoffset:0;marker-start:none;marker-mid:none;marker-end:none" />
    <path
       style="fill:none;stroke:#00980d;stroke-width:6;stroke-linecap:butt;stroke-linejoin:miter;stroke-miterlimit:4;stroke-opacity:1;stroke-dasharray:none"
       d="m 126.90446,-110.0508 c 0.14788,-1.13402 1.29728,-1.50775 1.8155,-2.35164 0.29672,-0.48321 0.42111,-1.05714 0.70351,-1.54885 0.31572,-0.54978 0.7679,-1.01329 1.08362,-1.56305 0.2824,-0.49172 0.40679,-1.06564 0.70352,-1.54886 0.42484,-0.69185 1.0581,-1.24606 1.44955,-1.95733 0.32924,-0.59821 0.40696,-1.3073 0.68933,-1.92898 0.30576,-0.67315 0.7637,-1.27001 1.06944,-1.94316 0.56477,-1.24339 0.76043,-2.64029 1.37866,-3.85796 1.28729,-2.53545 0.92826,-0.53287 1.78714,-3.11189 0.36997,-1.11094 0.33792,-1.1451 0.3092,-1.9148 -0.009,-0.25341 -0.0189,-0.50682 -0.0284,-0.76024 -0.005,-0.12666 -0.10048,-0.28717 -0.0142,-0.38012 0.25238,-0.27195 0.72125,0.25464 0.77442,0.35176 0.0609,0.11122 -0.0467,0.2689 0.0142,0.38012 0.21954,0.401 0.56603,0.72092 0.80279,1.11199 0.44052,0.72763 0.76097,1.52566 1.22547,2.23818 0.34623,0.5311 0.80964,0.97615 1.1971,1.47793 0.27941,0.36186 0.52339,0.75017 0.8028,1.11201 0.38747,0.50179 0.84128,0.95322 1.1971,1.47793 1.99294,2.93889 -0.70307,-0.007 2.42258,3.71612 1.23341,1.4693 1.10989,0.61023 1.98571,2.20981 0.32795,0.59891 0.47048,1.29245 0.83117,1.87224 0.18943,0.30452 0.52575,0.48791 0.78862,0.73186 0.3943,0.36595 0.7886,0.73188 1.18292,1.09782 0.26286,0.24396 0.56288,0.4532 0.7886,0.73187 0.17846,0.22033 0.27234,0.49738 0.4085,0.74606"
       id="path5362"
       inkscape:connector-curvature="0" />
    <text
       xml:space="preserve"
       style="font-size:48px;font-style:italic;font-variant:normal;font-weight:normal;font-stretch:normal;text-align:start;line-height:125%;letter-spacing:0px;word-spacing:0px;writing-mode:lr-tb;text-anchor:start;fill:#000000;fill-opacity:1;stroke:none;font-family:Lucida Handwriting;-inkscape-font-specification:Lucida Handwriting Italic"
       id="text3178"
       sodipodi:linespacing="125%"
       transform="translate(-9.8900448,-2.282318)"><textPath
         xlink:href="#path3977"
         id="textPath3979"><tspan
   id="tspan3180"
   style="font-size:48px;font-style:italic;font-variant:normal;font-weight:normal;font-stretch:normal;text-align:start;line-height:125%;writing-mode:lr-tb;text-anchor:start;font-family:Lucida Handwriting;-inkscape-font-specification:Lucida Handwriting Italic">Startup</tspan></textPath></text>
    <path
       style="fill:none;stroke:#000000;stroke-width:1px;stroke-linecap:butt;stroke-linejoin:miter;stroke-opacity:0.43999999"
       d="M 26.246656,-71.037154 C 107.26895,-143.69094 203.50671,-142.54977 203.50671,-142.54977"
       id="path3977"
       inkscape:connector-curvature="0"
       sodipodi:nodetypes="cc" />
  </g>
</svg>
