<?xml version="1.0" encoding="UTF-8" standalone="no"?>
<!-- Creator: CorelDRAW -->

<svg
   xmlns:dc="http://purl.org/dc/elements/1.1/"
   xmlns:cc="http://creativecommons.org/ns#"
   xmlns:rdf="http://www.w3.org/1999/02/22-rdf-syntax-ns#"
   xmlns:svg="http://www.w3.org/2000/svg"
   xmlns="http://www.w3.org/2000/svg"
   xmlns:xlink="http://www.w3.org/1999/xlink"
   xmlns:sodipodi="http://sodipodi.sourceforge.net/DTD/sodipodi-0.dtd"
   xmlns:inkscape="http://www.inkscape.org/namespaces/inkscape"
   xml:space="preserve"
   width="100px"
   height="100px"
   shape-rendering="geometricPrecision"
   text-rendering="geometricPrecision"
   image-rendering="optimizeQuality"
   fill-rule="evenodd"
   clip-rule="evenodd"
   viewBox="0 0 100 100"
   id="svg3051"
   version="1.1"
   inkscape:version="0.48.2 r9819"
   sodipodi:docname="Wiimote_power_button.svg"><metadata
   id="metadata3063"><rdf:RDF><cc:Work
       rdf:about=""><dc:format>image/svg+xml</dc:format><dc:type
         rdf:resource="http://purl.org/dc/dcmitype/StillImage" /><dc:title></dc:title></cc:Work></rdf:RDF></metadata><defs
   id="defs3061">
  
  
 
   
   
   
  </defs><sodipodi:namedview
   pagecolor="#ffffff"
   bordercolor="#666666"
   borderopacity="1"
   objecttolerance="10"
   gridtolerance="10"
   guidetolerance="10"
   inkscape:pageopacity="0"
   inkscape:pageshadow="2"
   inkscape:window-width="1523"
   inkscape:window-height="906"
   id="namedview3059"
   showgrid="false"
   inkscape:zoom="2.5464305"
   inkscape:cx="-132.15302"
   inkscape:cy="112.58738"
   inkscape:window-x="212"
   inkscape:window-y="40"
   inkscape:window-maximized="0"
   inkscape:current-layer="svg3051" />
 <path
   id="_228151912"
   d="m -156.40075,-44.609161 c -36.4562,26.9978 -17.21588,84.4494 27.9592,84.4494 45.092397,0 64.323405,-57.4516 27.957,-84.4494 -8.11896,-5.13074 -15.91902,4.84492 -8.80636,11.55836 25.334797,18.4277 12.118197,58.3894 -19.15054,58.3894 -31.3608,0 -44.2916,-39.9618 -19.23086,-58.3894 7.10084,-6.71344 -0.81496,-16.6891 -8.72842,-11.55836 z"
   inkscape:connector-curvature="0"
   style="fill:#c1312f;fill-rule:nonzero" /><path
   id="_228079336"
   d="m -135.63455,-56.406161 0,46.8688 c 0,5.1307398 2.0953,7.2378598 7.19298,7.2378598 5.00556,0 7.11266,-2.1071 7.11266,-7.2378598 l 0,-46.8688 c 0,-4.8898 -2.1071,-7.19298 -7.11266,-7.19298 -5.09768,0 -7.19298,2.30316 -7.19298,7.19298 z"
   inkscape:connector-curvature="0"
   style="fill:#c1312f;fill-rule:nonzero" />
<text
   xml:space="preserve"
   style="font-size:40px;font-style:normal;font-variant:normal;font-weight:normal;font-stretch:normal;text-align:start;line-height:125%;letter-spacing:0px;word-spacing:0px;writing-mode:lr-tb;text-anchor:start;fill:#000000;fill-opacity:1;stroke:none;font-family:Chalkduster;-inkscape-font-specification:Chalkduster"
   id="text3065"
   sodipodi:linespacing="125%"
   transform="translate(17.025908,-52.496551)"><textPath
     xlink:href="#path3870"
     id="textPath3872"><tspan
   id="tspan3067">Startup</tspan></textPath></text>
<text
   xml:space="preserve"
   style="font-size:40px;font-style:normal;font-variant:normal;font-weight:normal;font-stretch:normal;text-align:start;line-height:125%;letter-spacing:0px;word-spacing:0px;writing-mode:lr-tb;text-anchor:start;fill:#000000;fill-opacity:1;stroke:none;font-family:Chalkduster;-inkscape-font-specification:Chalkduster"
   id="text3069"
   sodipodi:linespacing="125%"
   transform="translate(-8.1582479,4.6111837)"><textPath
     xlink:href="#path3878"
     id="textPath3880"><tspan
   id="tspan3071">Gatineau</tspan></textPath></text>
<path
   style="fill:none;stroke:none;stroke-width:1px;stroke-linecap:butt;stroke-linejoin:miter;stroke-opacity:1;fill-opacity:1"
   d="m -218.49916,6.3575031 c 0.23647,-0.5911774 0.39351,-1.2207065 0.70941,-1.7735322 0.16592,-0.2903582 0.47295,-0.4729419 0.70942,-0.7094128 0.23647,-0.236471 0.47294,-0.4729419 0.70941,-0.7094129 0.23647,-0.2364709 0.44188,-0.5087606 0.70941,-0.7094128 1.1196,-0.8397019 0.44285,0.2665661 1.77353,-1.0641193 0.18695,-0.1869467 0.1432,-0.55078332 0.35471,-0.70941286 0.29912,-0.22433604 0.7297,-0.18749622 1.06412,-0.35470643 1.45567,-0.72783624 0.6738,-0.53903845 1.77353,-1.41882571 0.66578,-0.5326201 1.44615,-0.9072608 2.12824,-1.4188257 0.60566,-0.4542459 1.17593,-0.9540257 1.77353,-1.4188257 0.46665,-0.3629478 0.97392,-0.6748263 1.41883,-1.0641193 0.50335,-0.4404348 0.89087,-1.0081972 1.41882,-1.4188257 1.16564,-0.9066033 2.63869,-1.4064772 3.90177,-2.1282386 3.68286,-2.1044881 1.71724,-1.3382738 4.96589,-2.8376511 1.63516,-0.754686 3.3106,-1.418826 4.96589,-2.128239 0.82765,-0.354706 1.69013,-0.637214 2.48295,-1.064119 0.7507,-0.404222 1.35562,-1.05827 2.12824,-1.418826 3.02582,-1.41205 2.79726,-0.843216 5.6753,-1.418826 0.95606,-0.191212 1.88159,-0.5182 2.83765,-0.709412 0.81982,-0.163964 1.66831,-0.166713 2.48295,-0.354707 0.72863,-0.168147 1.38914,-0.595706 2.12824,-0.709413 0.81802,-0.12585 1.66096,0.0967 2.48294,0 5.31045,-0.624758 1.7314,-0.559104 6.03001,-1.418825 1.44349,-0.288698 3.84435,-0.368742 5.3206,-0.709413 0.72863,-0.168147 1.39062,-0.586478 2.12824,-0.709413 0.69976,-0.116627 1.42091,0.05441 2.12823,0 0.83359,-0.06412 1.65662,-0.227579 2.48295,-0.354707 1.42167,-0.218718 2.84128,-0.452104 4.25648,-0.709412 0.59316,-0.107848 1.17364,-0.294718 1.77353,-0.354707 0.58824,-0.05882 1.18235,0 1.77353,0 0.82765,0 1.6553,0 2.48295,0 2.60118,0 5.20236,0 7.80354,0 2.36471,0 4.72942,0 7.09413,0 1.06411,0 2.12823,0 3.19235,0 0.47295,0 0.94752,-0.03928 1.41883,0 0.94995,0.07916 1.89549,0.209759 2.83765,0.354707 1.54901,0.238308 2.28798,0.562704 3.90177,0.709412 4.67711,0 -0.79235,-0.143381 3.19236,0.354707 0.46929,0.05866 0.95714,-0.102596 1.41882,0 0.62156,0.138123 1.15198,0.571289 1.77354,0.709413 0.46168,0.102595 0.94877,-0.05223 1.41882,0 1.11127,-0.002 2.1107,0.574205 3.19236,0.709413 2.0558,0.256975 1.07735,-0.468532 3.54706,0.354706 0.40443,0.134809 0.67229,0.541483 1.064124,0.709413 0.448081,0.192034 0.962368,0.183535 1.418826,0.354706 0.990196,0.371324 1.847455,1.047502 2.837651,1.418826 0.456458,0.171172 0.950085,0.220781 1.418826,0.354706 0.359507,0.102717 0.704611,0.25199 1.064119,0.354707 0.46874,0.133926 0.992676,0.117957 1.418826,0.354706 0.661804,0.367669 1.124344,1.029313 1.773532,1.418826 0.545981,0.327588 1.191692,0.450817 1.773532,0.709413 0.966383,0.429504 1.871268,0.989322 2.837651,1.418826 1.710276,0.760122 1.664275,0.545635 3.192358,1.418825 1.248807,0.713604 2.381709,1.650548 3.547064,2.4829453 0.346898,0.2477842 0.672284,0.5414834 1.06412,0.7094128 0.448081,0.1920346 0.982795,0.136691 1.418825,0.3547064 0.299115,0.1495574 0.410299,0.5598555 0.709413,0.7094129 0.211506,0.105753 0.477534,-0.046376 0.709413,0 1.48594,0.297188 0.73319,0.3665949 2.128239,1.0641193 0.33442,0.1672102 0.716968,0.2158459 1.064119,0.3547064 0.245473,0.098189 0.458598,0.2711013 0.709413,0.3547064 0.112168,0.037389 0.248953,-0.052876 0.354706,0 0.149558,0.074779 0.236471,0.236471 0.354707,0.3547065 0.236471,0.2364709 0.500502,0.4482743 0.709413,0.7094128 0.26631,0.3328876 0.40797,0.7626768 0.709412,1.0641193 0.709973,0.7099725 1.680551,0.8838964 2.482945,1.4188257 0.542457,0.3616379 0.278657,0.4897782 0.709413,1.0641193 0.200653,0.26753634 0.500502,0.44827437 0.709413,0.70941286 0.26631,0.33288755 0.443103,0.73123173 0.709413,1.06411928 0.208911,0.26113848 0.559856,0.41029816 0.709413,0.70941286 0.218015,0.4360309 0.22078,0.9500853 0.354706,1.4188257 0.102717,0.3595075 0.215846,0.716968 0.354707,1.0641193 0.530909,1.3272738 0.231346,0.1079868 1.064119,1.7735321 0.16721,0.3344205 0.16234,0.7435084 0.354706,1.0641193 0.172058,0.2867632 0.537355,0.4226497 0.709413,0.7094129 0.192367,0.3206109 0.187497,0.7296988 0.354707,1.0641192 0.07478,0.1495574 0.279927,0.2051491 0.354706,0.3547065 0.05288,0.105753 -0.03739,0.2425384 0,0.3547064 0.0836,0.2508153 0.256517,0.4639398 0.354707,0.7094129 0.13886,0.3471516 0.187496,0.7296986 0.354706,1.0641196 0.811676,1.623352 -0.147016,-1.5051675 0.709413,1.064119 0.07478,0.224336 -0.07478,0.485077 0,0.709413 0.246725,0.740176 0.817394,1.033356 1.064119,1.773532 0.03739,0.112168 -0.0836,0.271101 0,0.354706 0.186947,0.186947 0.522466,0.16776 0.709413,0.354707 0.16721,0.16721 -0.105753,0.497907 0,0.709413 0.07478,0.149557 0.236471,0.236471 0.354706,0.354706"
   id="path3870"
   inkscape:connector-curvature="0" /><path
   style="fill:none;stroke:none;stroke-width:1px;stroke-linecap:butt;stroke-linejoin:miter;stroke-opacity:1"
   d="m -215.66151,42.892265 c 0.11823,0.472942 0.13669,0.982795 0.3547,1.418826 0.14956,0.299114 0.47295,0.472941 0.70942,0.709412 0.23647,0.236471 0.47294,0.472942 0.70941,0.709413 0.82765,0.827649 1.60208,1.712184 2.48294,2.482946 0.44491,0.389293 0.97392,0.674826 1.41883,1.064119 0.50335,0.440435 0.94588,0.945884 1.41883,1.418826 0.59117,0.591177 1.18235,1.182354 1.77353,1.773532 0.59118,0.591177 1.12646,1.244113 1.77353,1.773532 0.65988,0.539903 1.42723,0.933512 2.12824,1.418825 0.83625,0.578944 1.64669,1.194589 2.48294,1.773532 0.70101,0.485314 1.41883,0.945884 2.12824,1.418826 0.70942,0.472942 1.36565,1.037528 2.12824,1.418826 0.66884,0.33442 1.4594,0.374992 2.12824,0.709413 0.7626,0.381298 1.37754,1.014604 2.12824,1.418825 1.59943,0.861234 3.67271,1.422004 5.32059,2.128239 0.72902,0.312436 1.4081,0.731744 2.12824,1.064119 0.81758,0.377343 1.6682,0.680709 2.48295,1.06412 7.45463,3.727317 0.2189,0.196241 6.03001,2.837651 0.48137,0.218805 0.93745,0.490608 1.41882,0.709413 1.60715,0.730519 2.68001,1.142943 4.25648,1.773532 0.59118,0.236471 1.16949,0.508065 1.77353,0.709413 0.46248,0.15416 0.94589,0.236471 1.41883,0.354706 0.47294,0.118236 0.93431,0.300872 1.41882,0.354707 0.58757,0.06528 1.18597,-0.06528 1.77354,0 0.96903,0.10767 1.86862,0.601742 2.83765,0.709413 6.42957,0 -1.49558,-0.186947 2.83765,0.354706 0.58661,0.07333 1.18235,0 1.77353,0 0.23647,0 0.48,-0.05735 0.70941,0 0.72546,0.181365 1.40278,0.528048 2.12824,0.709413 0.22941,0.05735 0.47294,0 0.70942,0 0.59117,0 1.18235,0 1.77353,0 1.18235,0 2.36471,0 3.54706,0 3.6653,0 7.3306,0 10.9959,0 1.41883,0 2.83765,0 4.25648,0 0.47294,0 0.94588,0 1.41882,0 0.35471,0 0.71298,-0.05016 1.06412,0 0.4826,0.06894 0.93623,0.285764 1.41883,0.354706 0.35114,0.05016 0.7163,-0.06956 1.06412,0 0.25925,0.05185 0.45016,0.302857 0.70941,0.354707 0.34782,0.06956 0.71298,-0.05016 1.06412,0 0.9652,0.137885 1.87592,0.549124 2.83765,0.709413 0.23326,0.03887 0.47294,0 0.70941,0 0.70942,0 1.41883,0 2.12824,0 0.82765,0 1.6553,0 2.48295,0 1.77353,0 3.54706,0 5.32059,0 0.59118,0 1.18236,0 1.77354,0 0.47294,0 0.94877,0.05223 1.41882,0 0.5992,-0.06658 1.17273,-0.30464 1.77353,-0.354707 0.82479,-0.06873 1.6553,0 2.48295,0 0.70941,0 1.41883,0 2.12824,0 0.70941,0 1.43097,0.130737 2.12824,0 1.213271,-0.227488 2.349501,-0.76473 3.547064,-1.064119 0.697726,-0.174431 1.417404,-0.245347 2.12824,-0.354707 5.933413,-0.912832 -0.697477,0.175364 4.611183,-0.709412 0.709413,-0.118236 1.425005,-0.204014 2.128239,-0.354707 0.953352,-0.20429 1.872456,-0.571528 2.837651,-0.709413 0.702283,-0.100326 1.428478,0.116627 2.128239,0 0.737612,-0.122935 1.418825,-0.472942 2.128238,-0.709413 4.844174,-1.614724 -0.106352,0.146925 3.547064,-1.418825 0.343663,-0.147284 0.709413,-0.236471 1.06412,-0.354707 0.354706,-0.118235 0.7034,-0.256328 1.064119,-0.354706 1.996019,-0.544369 2.885409,-0.555938 4.611184,-1.418826 0.762596,-0.381298 1.365642,-1.037528 2.128238,-1.418826 0.569498,-0.284748 1.191692,-0.450817 1.773532,-0.709412 0.483192,-0.214752 0.932814,-0.501122 1.418826,-0.709413 0.343662,-0.147284 0.714032,-0.223424 1.064119,-0.354707 1.192355,-0.447133 2.338978,-1.01613 3.547065,-1.418825 2.094906,-0.698303 0.805884,0.09689 2.837651,-1.06412 1.628649,-0.930656 0.750093,-0.642937 2.482945,-2.128238 0.323674,-0.277435 0.717221,-0.461629 1.064119,-0.709413 1.051114,-0.750796 1.438027,-1.146581 2.482945,-1.773532 0.06143,-0.03686 1.4061,-0.696687 1.418826,-0.709413 0.186947,-0.186947 0.16776,-0.522466 0.354706,-0.709413 0.08361,-0.08361 0.248954,0.05288 0.354707,0 0.381298,-0.190649 0.731232,-0.443103 1.064119,-0.709413 1.064444,-0.851555 0.810441,-1.134617 1.773532,-2.482945 0.835407,-1.169569 0.458486,-0.343864 1.418826,-1.064119 0.267536,-0.200652 0.472942,-0.472942 0.709413,-0.709413 0.118235,-0.118235 0.261955,-0.215579 0.354706,-0.354706 0.146653,-0.21998 0.16776,-0.522466 0.354707,-0.709413 0.186946,-0.186947 0.522466,-0.16776 0.709413,-0.354706 0.186946,-0.186947 0.208053,-0.489434 0.354706,-0.709413 0.09275,-0.139128 0.279928,-0.205149 0.354706,-0.354707 0.05288,-0.105753 -0.05288,-0.248953 0,-0.354706 0.07478,-0.149558 0.279928,-0.205149 0.354707,-0.354707 0.05288,-0.105753 -0.03739,-0.242538 0,-0.354706 0.0836,-0.250815 0.271101,-0.458598 0.354706,-0.709413 0.03739,-0.112168 -0.0836,-0.271101 0,-0.354706 0.0836,-0.08361 0.30183,0.105753 0.354707,0 0.105753,-0.211507 -0.07478,-0.485077 0,-0.709413 0.105753,-0.31726 0.60366,-0.392154 0.709413,-0.709413 0.07478,-0.224336 -0.05735,-0.480003 0,-0.709413 0.06412,-0.256489 0.271101,-0.458598 0.354706,-0.709413 0.03739,-0.112168 -0.0836,-0.271101 0,-0.354706 0.08361,-0.08361 0.30183,0.105753 0.354706,0 0.141883,-0.283766 -0.141882,-0.780355 0,-1.06412 0.438312,-0.876623 0.354707,0.122437 0.354707,-0.709413"
   id="path3878"
   inkscape:connector-curvature="0" /></svg>