<?xml version="1.0" encoding="UTF-8" ?>
<!DOCTYPE svg PUBLIC "-//W3C//DTD SVG 1.1//EN" "http://www.w3.org/Graphics/SVG/1.1/DTD/svg11.dtd">
<svg width="640pt" height="384pt" viewBox="0 0 640 384" version="1.1" xmlns="http://www.w3.org/2000/svg">
<g id="#ffffffff">
</g>
<g id="#008459ff">
<path fill="#008459" opacity="1.00" d=" M 333.23 0.00 L 356.67 0.00 C 383.72 1.41 410.72 6.19 436.11 15.80 C 461.30 25.46 485.64 39.40 503.41 60.05 C 483.74 61.17 463.93 58.68 445.07 53.06 C 427.09 47.95 407.93 47.28 389.59 50.82 C 370.80 54.67 352.81 62.36 336.81 72.90 C 357.97 66.50 379.67 60.24 401.99 60.85 C 416.38 61.22 430.40 64.90 444.07 69.15 C 456.38 73.06 469.15 75.62 482.06 76.40 C 491.72 77.01 501.58 76.71 510.98 74.18 C 511.72 75.38 512.47 76.58 513.20 77.80 C 487.76 86.13 459.86 86.41 434.18 78.91 C 395.81 67.93 352.52 74.76 319.84 97.79 C 342.29 88.68 366.85 85.65 390.95 86.51 C 415.29 87.56 437.73 98.84 461.97 100.54 C 479.15 102.20 496.62 99.02 512.32 91.91 C 509.77 97.76 503.37 99.62 497.87 101.58 C 470.98 110.24 441.74 109.71 414.41 103.40 C 403.83 100.58 392.95 98.58 381.97 98.72 C 352.95 98.13 324.79 109.31 301.24 125.68 C 322.39 118.11 344.35 111.40 367.01 111.24 C 383.77 111.13 399.98 115.86 416.02 120.13 C 434.60 124.49 454.18 126.32 473.00 122.36 C 458.77 132.05 442.78 138.86 426.58 144.50 C 393.30 155.57 358.03 160.82 322.97 159.59 C 304.65 158.82 286.22 156.20 268.92 149.91 C 258.50 146.03 248.26 140.69 240.72 132.33 C 235.14 126.35 231.74 118.21 232.10 109.97 C 232.39 100.88 236.83 92.48 242.39 85.49 C 251.81 74.01 264.13 65.34 277.05 58.22 C 291.98 50.09 307.93 43.92 324.25 39.21 C 328.57 37.96 333.00 37.03 337.25 35.53 C 313.55 35.04 289.87 38.58 267.06 44.89 C 249.79 49.61 232.96 56.22 217.62 65.50 C 200.35 76.02 184.83 90.33 175.60 108.54 C 168.71 122.16 165.77 137.92 168.67 153.01 C 159.57 132.88 159.09 109.07 167.66 88.67 C 177.55 64.47 197.37 45.72 219.32 32.26 C 253.48 11.41 293.53 1.90 333.23 0.00 Z" />
</g>
<g id="#004a7fff">
<path fill="#004a7f" opacity="1.00" d=" M 523.08 113.18 C 524.30 110.15 524.80 106.86 526.20 103.89 C 529.51 120.76 527.27 138.57 520.26 154.24 C 511.55 174.05 496.10 190.22 478.49 202.47 C 453.79 219.48 424.66 229.34 395.07 233.40 C 367.36 237.13 338.96 235.83 311.74 229.39 C 314.72 228.43 317.90 228.64 320.98 228.32 C 356.99 225.50 393.01 218.56 426.37 204.41 C 448.46 195.05 469.30 182.33 486.78 165.83 C 502.33 151.06 515.46 133.34 523.08 113.18 Z" />
<path fill="#004a7f" opacity="1.00" d=" M 141.51 197.76 C 144.34 197.75 147.17 197.75 150.00 197.76 C 149.96 213.77 150.07 229.78 149.95 245.80 C 147.10 245.79 144.25 245.77 141.41 245.58 C 141.63 229.64 141.42 213.70 141.51 197.76 Z" />
<path fill="#004a7f" opacity="1.00" d=" M 157.21 197.86 C 159.96 197.74 162.72 197.73 165.48 197.74 C 165.59 213.69 165.37 229.64 165.59 245.58 C 162.82 245.77 160.03 245.79 157.25 245.75 C 157.22 229.79 157.31 213.82 157.21 197.86 Z" />
<path fill="#004a7f" opacity="1.00" d=" M 236.76 197.75 C 239.43 197.74 242.11 197.75 244.78 197.83 C 244.72 213.80 244.76 229.78 244.75 245.76 C 242.30 245.78 239.85 245.75 237.41 245.57 C 237.42 244.07 237.42 242.57 237.41 241.08 C 234.83 243.69 231.84 246.42 227.90 246.35 C 222.47 247.03 217.45 243.25 215.75 238.22 C 213.29 231.22 213.54 222.44 218.68 216.68 C 223.43 211.38 233.00 211.64 236.84 217.91 C 236.65 211.19 236.78 204.47 236.76 197.75 M 227.27 219.23 C 223.88 221.54 223.42 226.01 223.37 229.78 C 223.49 233.00 223.71 236.55 225.82 239.17 C 227.94 241.59 232.01 241.54 234.05 239.03 C 236.25 236.22 236.68 232.48 236.74 229.03 C 236.54 225.90 236.29 222.37 234.00 219.98 C 232.35 218.15 229.28 217.95 227.27 219.23 Z" />
<path fill="#004a7f" opacity="1.00" d=" M 125.74 198.29 C 128.49 198.24 131.25 198.24 134.00 198.28 C 134.00 200.67 134.00 203.07 134.01 205.48 C 131.25 205.51 128.50 205.51 125.74 205.46 C 125.75 203.07 125.75 200.67 125.74 198.29 Z" />
<path fill="#004a7f" opacity="1.00" d=" M 81.27 200.00 C 84.64 199.96 88.01 199.94 91.37 200.17 C 94.84 211.15 99.22 221.83 102.69 232.81 C 106.83 222.01 110.76 211.13 114.47 200.19 C 117.04 199.99 119.62 199.97 122.20 199.98 C 116.42 215.27 110.30 230.43 104.50 245.71 C 102.69 245.73 100.89 245.75 99.09 245.78 C 93.11 230.54 87.09 215.31 81.27 200.00 Z" />
<path fill="#004a7f" opacity="1.00" d=" M 125.81 209.24 C 128.52 209.25 131.22 209.25 133.94 209.20 C 134.04 221.40 134.04 233.60 133.94 245.80 C 131.23 245.75 128.53 245.74 125.83 245.77 C 125.69 233.59 125.72 221.41 125.81 209.24 Z" />
<path fill="#004a7f" opacity="1.00" d=" M 180.05 214.23 C 185.19 212.32 191.95 212.72 195.82 217.03 C 198.55 220.04 199.06 224.24 199.29 228.13 C 192.77 230.18 186.02 231.46 179.19 231.81 C 179.66 235.24 180.81 239.24 184.26 240.77 C 188.06 242.72 192.18 240.59 195.67 238.96 C 196.40 240.19 197.14 241.42 197.89 242.64 C 191.59 247.35 181.68 248.00 175.67 242.44 C 167.53 234.80 169.40 218.69 180.05 214.23 M 182.00 219.06 C 179.89 221.15 179.64 224.27 179.07 227.02 C 183.36 226.96 187.61 226.30 191.76 225.19 C 191.31 223.19 191.15 220.97 189.77 219.34 C 188.03 216.86 183.93 216.79 182.00 219.06 Z" />
<path fill="#004a7f" opacity="1.00" d=" M 253.43 218.43 C 257.69 212.89 266.05 211.71 272.08 214.83 C 276.74 217.45 278.16 223.16 278.28 228.13 C 271.74 230.16 264.98 231.48 258.13 231.82 C 258.69 235.13 259.70 238.99 262.97 240.63 C 266.87 242.86 271.17 240.56 274.79 238.87 C 275.44 240.30 276.11 241.72 276.78 243.16 C 270.75 246.40 262.98 247.95 256.85 244.11 C 248.34 238.86 247.51 225.91 253.43 218.43 M 258.05 227.00 C 262.32 226.99 266.56 226.28 270.69 225.22 C 270.46 221.93 269.00 217.36 264.95 217.46 C 259.95 217.27 258.58 223.09 258.05 227.00 Z" />
<path fill="#004a7f" opacity="1.00" d=" M 51.55 258.74 C 66.74 255.87 83.28 256.52 97.03 264.21 C 95.14 269.17 93.13 274.08 91.30 279.07 C 86.41 276.86 81.46 274.51 76.05 273.98 C 64.26 272.54 51.33 274.27 41.72 281.72 C 33.28 288.26 28.81 298.65 27.17 308.97 C 25.06 322.70 26.09 337.33 32.41 349.88 C 35.76 356.70 41.13 362.74 48.13 365.91 C 58.09 370.44 70.02 369.30 79.59 364.31 C 79.40 353.40 79.52 342.48 79.52 331.56 C 70.79 331.44 62.05 331.51 53.31 331.52 C 54.28 326.95 55.30 322.38 56.30 317.81 C 70.67 317.66 85.05 317.82 99.43 317.72 C 99.62 335.72 99.41 353.72 99.54 371.72 C 89.30 378.81 77.15 382.87 64.79 384.00 L 53.22 384.00 C 39.06 383.00 24.74 377.62 15.12 366.86 C 5.43 356.24 1.03 341.86 0.00 327.75 L 0.00 315.34 C 1.06 304.43 4.47 293.65 10.77 284.62 C 20.18 270.95 35.37 261.88 51.55 258.74 Z" />
<path fill="#004a7f" opacity="1.00" d=" M 202.21 266.04 C 209.67 266.01 217.13 265.88 224.59 266.12 C 224.46 275.01 224.41 283.91 224.61 292.81 C 230.33 292.74 236.06 292.65 241.79 292.86 C 241.72 297.49 241.76 302.13 241.73 306.76 C 236.23 306.77 230.72 306.65 225.21 306.85 C 225.35 321.83 225.13 336.83 225.32 351.81 C 225.63 356.95 225.50 362.81 229.15 366.90 C 232.63 370.49 238.18 369.72 242.47 368.28 C 243.26 372.22 244.95 376.04 245.18 380.05 C 239.49 382.54 233.18 383.05 227.06 383.58 C 220.59 383.55 213.66 381.76 209.05 376.95 C 203.92 371.70 201.98 364.14 201.75 356.99 C 201.72 340.10 201.81 323.20 201.71 306.31 C 199.23 306.26 196.75 306.24 194.28 306.24 C 194.23 301.74 194.22 297.23 194.29 292.73 C 196.91 292.74 199.53 292.75 202.15 292.79 C 202.36 283.88 202.23 274.96 202.21 266.04 Z" />
<path fill="#004a7f" opacity="1.00" d=" M 257.00 267.00 C 264.00 267.00 271.00 267.00 278.00 267.00 C 278.00 273.08 278.00 279.16 278.00 285.24 C 271.00 285.25 264.00 285.25 257.00 285.24 C 257.00 279.16 257.00 273.08 257.00 267.00 Z" />
<path fill="#004a7f" opacity="1.00" d=" M 114.15 298.62 C 123.66 290.91 135.84 286.94 147.96 286.08 C 157.32 285.54 167.37 287.17 174.86 293.18 C 181.74 298.61 185.24 307.44 185.52 316.05 C 186.43 337.88 184.65 359.81 186.83 381.60 C 179.99 381.41 173.15 381.51 166.31 381.53 C 165.98 377.28 165.83 373.03 165.76 368.78 C 159.48 377.75 148.74 382.81 137.97 383.30 C 133.66 383.00 129.23 383.82 125.07 382.27 C 118.22 380.65 112.29 375.54 109.85 368.92 C 106.91 361.22 107.38 352.00 112.18 345.15 C 117.53 337.30 126.32 332.75 135.01 329.59 C 144.32 326.34 154.10 324.51 163.92 323.68 C 164.06 319.41 164.42 314.87 162.41 310.94 C 159.39 304.40 151.99 300.89 145.02 300.96 C 136.50 300.80 128.53 304.73 121.86 309.73 C 119.29 306.03 116.81 302.26 114.15 298.62 M 135.31 343.36 C 129.19 348.08 126.63 357.92 131.73 364.26 C 138.33 372.04 151.77 370.89 157.81 362.98 C 164.37 354.81 164.13 343.71 163.99 333.79 C 154.08 335.44 143.48 337.03 135.31 343.36 Z" />
<path fill="#004a7f" opacity="1.00" d=" M 475.77 298.36 C 488.48 288.94 504.91 284.33 520.63 286.57 C 529.94 287.84 539.06 293.06 543.35 301.66 C 548.16 310.31 547.17 320.49 547.25 330.00 C 547.48 347.17 546.51 364.41 548.47 381.51 C 541.58 381.48 534.70 381.53 527.81 381.48 C 527.51 377.26 527.46 373.04 527.49 368.82 C 524.60 371.78 522.05 375.18 518.45 377.36 C 509.76 382.99 498.96 384.18 488.89 382.87 C 482.18 381.57 475.73 377.66 472.57 371.43 C 468.31 363.03 468.52 352.06 474.29 344.40 C 479.38 337.50 487.16 333.14 495.05 330.16 C 504.89 326.45 515.33 324.62 525.76 323.60 C 525.76 319.37 525.97 314.91 524.03 311.03 C 521.29 304.90 514.56 301.36 508.06 301.02 C 499.07 300.36 490.46 304.42 483.48 309.78 C 480.89 305.98 478.23 302.24 475.77 298.36 M 497.18 343.13 C 490.96 347.69 488.20 357.53 493.12 363.95 C 499.50 372.01 512.99 370.98 519.20 363.23 C 525.88 355.03 525.82 343.76 525.64 333.73 C 515.81 335.44 505.36 336.96 497.18 343.13 Z" />
<path fill="#004a7f" opacity="1.00" d=" M 407.84 291.83 C 417.03 286.47 428.21 285.43 438.55 287.31 C 446.84 288.80 454.86 293.07 459.82 300.01 C 466.13 308.56 468.13 319.43 468.26 329.84 C 449.28 336.44 429.31 339.93 409.25 340.80 C 410.02 348.35 411.92 356.14 416.86 362.10 C 421.82 368.29 430.26 371.16 438.02 369.99 C 445.13 369.04 451.61 365.70 457.79 362.25 C 459.91 366.14 462.04 370.02 464.14 373.92 C 453.94 379.73 442.57 383.75 430.73 384.00 L 430.23 384.00 C 416.94 383.95 403.54 378.31 395.22 367.77 C 385.10 355.37 382.72 338.15 385.98 322.82 C 388.70 310.14 396.34 298.20 407.84 291.83 M 416.93 303.94 C 411.43 310.38 410.06 319.15 409.28 327.30 C 421.85 327.20 434.37 325.35 446.45 321.87 C 446.17 314.77 444.49 307.01 438.95 302.09 C 432.74 296.57 422.18 297.56 416.93 303.94 Z" />
<path fill="#004a7f" opacity="1.00" d=" M 331.38 291.46 C 342.58 286.89 356.92 287.34 366.30 295.67 C 372.91 301.43 375.48 310.45 375.50 318.97 C 375.48 339.82 375.56 360.67 375.46 381.52 C 368.22 381.47 360.98 381.54 353.75 381.48 C 353.75 364.32 353.74 347.16 353.76 330.00 C 353.52 323.51 354.39 316.49 351.27 310.53 C 345.66 301.92 331.76 301.51 324.82 308.74 C 318.80 314.42 317.58 323.13 317.28 331.00 C 317.14 347.71 317.39 364.44 317.17 381.15 C 309.63 382.06 301.78 381.14 294.12 381.59 C 293.87 351.47 294.02 321.34 294.05 291.21 C 300.92 291.28 307.80 291.25 314.69 291.24 C 314.95 295.94 315.19 300.65 315.34 305.36 C 319.52 299.57 324.57 294.12 331.38 291.46 Z" />
<path fill="#004a7f" opacity="1.00" d=" M 559.00 290.00 C 566.25 290.01 573.51 289.97 580.77 290.03 C 580.74 309.33 580.73 328.63 580.77 347.93 C 580.98 353.42 580.93 359.77 585.20 363.88 C 592.41 370.43 604.89 369.75 611.34 362.41 C 617.17 356.16 617.98 347.15 618.23 339.01 C 618.27 322.69 618.26 306.36 618.23 290.03 C 625.48 290.17 632.77 289.56 640.00 290.39 L 640.00 381.36 C 633.52 381.68 627.03 381.43 620.55 381.49 C 620.32 376.57 620.19 371.64 619.92 366.73 C 615.09 374.11 607.85 380.00 599.20 382.16 C 588.67 384.81 576.19 383.74 567.95 376.04 C 561.64 370.20 559.08 361.43 559.05 353.03 C 558.93 332.02 559.04 311.01 559.00 290.00 Z" />
<path fill="#004a7f" opacity="1.00" d=" M 257.00 293.00 C 264.00 293.00 271.00 293.00 278.00 293.00 C 277.96 322.60 278.08 352.20 277.94 381.79 C 270.98 381.72 264.02 381.71 257.07 381.80 C 256.91 352.20 257.04 322.60 257.00 293.00 Z" />
</g>
</svg>
