<?xml version="1.0" encoding="UTF-8"?>
<!DOCTYPE svg PUBLIC "-//W3C//DTD SVG 1.1//EN" "http://www.w3.org/Graphics/SVG/1.1/DTD/svg11.dtd">
<!-- Creator: CorelDRAW -->
<svg xmlns="http://www.w3.org/2000/svg" xml:space="preserve" width="100px" height="100px" shape-rendering="geometricPrecision" text-rendering="geometricPrecision" image-rendering="optimizeQuality" fill-rule="evenodd" clip-rule="evenodd"
viewBox="0 0 100 100">
 <g id="Layer_x0020_1">
  <metadata id="CorelCorpID_0Corel-Layer"/>
  <g id="_230834280">
   <path id="_227846264" fill="none" fill-rule="nonzero" stroke="#131516" stroke-width="4.99965" stroke-linecap="round" stroke-linejoin="round" d="M96.0834 50.0201c0,-25.4376 -20.7261,-46.0433 -46.2216,-46.0433 -25.336,0 -45.9464,20.6057 -45.9464,46.0433 0,25.4341 20.6104,46.0043 45.9464,46.0043 25.4955,0 46.2216,-20.5702 46.2216,-46.0043z"/>
   <path id="_228151912" fill="#C1312F" fill-rule="nonzero" d="M36.6901 32.7652c-18.2281,13.4989 -8.60794,42.2247 13.9796,42.2247 22.5462,0 32.1617,-28.7258 13.9785,-42.2247 -4.05948,-2.56537 -7.95951,2.42246 -4.40318,5.77918 12.6674,9.21385 6.0591,29.1947 -9.57527,29.1947 -15.6804,0 -22.1458,-19.9809 -9.61543,-29.1947 3.55042,-3.35672 -0.407484,-8.34455 -4.36421,-5.77918z"/>
   <path id="_228079336" fill="#C1312F" fill-rule="nonzero" d="M47.0732 26.8667l0 23.4344c0,2.56537 1.04765,3.61893 3.59649,3.61893 2.50278,0 3.55633,-1.05355 3.55633,-3.61893l0 -23.4344c0,-2.4449 -1.05355,-3.59649 -3.55633,-3.59649 -2.54884,0 -3.59649,1.15158 -3.59649,3.59649z"/>
  </g>
 </g>
</svg>
